PathFileType	4	(X/Y/Z)	C:\Users\WrightLab\Desktop\Jo\P5V134.trc
DataRate	CameraRate	NumFrames	NumMarkers	Units	OrigDataRate	OrigDataStartFrame	OrigNumFrames
100.00	100.00	       16	19	mm	100.00	1	       529
Frame#	Time	Headset_Front			Headset_Back			Headset_Left			Headset_Right			Left_Shoulder			Right_Shoulder			Sternum			C7			Left Elbow			Right Elbow			Left Wrist			Right Wrist			Left ASIS			Right ASIS			S2			Left Knee			Right Knee			Left Ankle			Right Ankle			
		X1	Y1	Z1	X2	Y2	Z2	X3	Y3	Z3	X4	Y4	Z4	X5	Y5	Z5	X6	Y6	Z6	X7	Y7	Z7	X8	Y8	Z8	X9	Y9	Z9	X10	Y10	Z10	X11	Y11	Z11	X12	Y12	Z12	X13	Y13	Z13	X14	Y14	Z14	X15	Y15	Z15	X16	Y16	Z16	X17	Y17	Z17	X18	Y18	Z18	X19	Y19	Z19	

1	0.000																									159.76471	1213.93811	-1275.97717	-364.82999	1177.21729	-1099.36975	143.11595	1152.30566	-1064.03174	-234.45200	1063.87854	-927.74945	77.66622	924.81476	-1087.15881	-180.51312	941.62854	-1001.76208				124.52248	484.95602	-1156.45166	-263.46841	468.26608	-1062.20044				-304.32993	81.98348	-1180.97119	
2	0.010																									160.35608	1213.97327	-1276.34326	-362.45401	1176.33789	-1098.64307	144.22919	1152.45593	-1064.05713	-233.44994	1064.05615	-926.95819	78.45946	925.09839	-1087.12268	-181.03004	942.55109	-1002.10638				124.87432	484.95569	-1156.80627	-263.30481	469.38452	-1061.45508				-304.29651	81.97909	-1180.96631	
3	0.020																									160.86119	1213.97668	-1276.78699	-362.06537	1176.77686	-1097.66418	145.99435	1152.06152	-1065.09143	-232.97310	1064.00867	-926.92255	79.53909	924.63568	-1086.67017	-180.59752	942.68695	-1002.51300				126.30255	484.30981	-1155.79456	-261.91837	469.40436	-1060.64172				-303.93979	82.26794	-1181.20752	
4	0.030																									162.17920	1213.27441	-1274.99622	-361.55252	1177.39954	-1096.44531	148.05217	1152.17407	-1065.79663	-231.50989	1064.23413	-925.95099	79.97491	924.66754	-1086.31787	-178.96159	942.20374	-1001.60303				127.06052	484.03708	-1155.33228	-261.55374	469.50473	-1060.59424				-303.61774	83.06775	-1181.66626	
5	0.040																									162.72404	1213.30591	-1275.34521	-360.22949	1177.76855	-1095.66138	148.15646	1151.98328	-1065.82483	-228.94522	1064.25513	-925.34442	80.57838	924.68988	-1086.35754	-178.24701	942.57233	-1000.83789				125.02966	482.60715	-1155.17786	-261.08719	469.83118	-1060.27393				-303.59198	83.06144	-1181.66211	
6	0.050																						-125.97713	1520.24072	-1230.27026	165.19588	1213.32935	-1275.06860	-357.93884	1178.04138	-1094.79724	148.15646	1151.98328	-1065.82483	-227.39534	1064.35315	-923.93689	81.65231	924.83221	-1086.17786	-177.40111	943.02484	-999.99054				124.95964	483.39633	-1155.85376	-260.91736	470.29315	-1060.05701				-303.13882	83.62830	-1181.35791	
7	0.060																						-125.02154	1520.18640	-1230.17004	165.72256	1213.37183	-1275.34729	-359.38519	1178.71448	-1094.16602	149.57663	1151.71753	-1066.08813	-226.44579	1064.65857	-923.23993	83.38611	925.08911	-1087.18848	-176.07173	943.52649	-999.09167				125.80632	483.19373	-1155.60547	-260.53964	470.94727	-1059.36926				-303.14221	83.62927	-1181.35840	
8	0.070																						-124.08422	1520.52124	-1230.21667	166.27228	1213.43604	-1275.54517	-355.08359	1177.26721	-1093.68640	151.36322	1151.47534	-1066.74463	-225.79340	1065.63354	-923.01611	83.79736	924.72644	-1086.99634	-175.16891	943.73694	-998.75708				126.22100	483.37173	-1154.55762	-260.35938	471.38589	-1058.33264				-303.08289	83.61961	-1181.34961	
9	0.080																						-122.93230	1521.11633	-1229.82532	166.77167	1213.49670	-1275.71545	-354.63379	1177.68591	-1093.46021	152.35049	1151.48962	-1067.54736	-225.13586	1065.78662	-922.52728	85.62756	924.14471	-1087.91492	-174.07362	943.84253	-998.44611				126.42036	483.40634	-1154.51880	-259.57397	471.54156	-1057.82190				-303.04248	83.81835	-1180.91589	
10	0.090																						-121.91122	1521.07922	-1229.48071	167.27170	1213.54053	-1275.97034	-355.89423	1178.84314	-1092.47876	153.36432	1151.43945	-1067.94910	-223.89998	1065.66919	-922.05017	85.72829	924.16290	-1087.87866	-173.49902	944.08948	-998.22699				127.47615	483.91144	-1154.52051	-259.09512	471.75104	-1056.90356				-302.67178	84.11806	-1181.12866	
11	0.100																						-121.03796	1520.98279	-1229.40137	167.81734	1213.57996	-1276.29126	-354.78598	1179.27209	-1092.12659	153.64355	1151.10791	-1067.66321	-222.73399	1065.75647	-921.81421	86.47804	924.33124	-1087.50916	-173.12024	944.02057	-997.83081				127.63083	483.92407	-1154.48279	-258.49780	471.37155	-1057.20557				-302.34833	84.71252	-1180.36023	
12	0.110																						-120.07664	1520.79956	-1228.94604	169.14293	1214.13892	-1277.75476	-353.43698	1179.32275	-1091.59680	153.89537	1150.86243	-1067.29736	-220.84090	1066.35388	-921.67883	87.17554	924.76343	-1087.41492	-172.87294	944.34161	-997.93109				127.71603	483.92950	-1154.46118	-258.43176	471.37512	-1057.17480				-302.30179	84.69012	-1180.35095	
13	0.120																						-119.12706	1520.96851	-1228.88965	170.64116	1213.57800	-1276.42505	-350.70139	1178.57983	-1091.52393	155.44824	1150.60962	-1067.07666	-219.50874	1066.68079	-921.37805	87.91519	924.97577	-1087.39978	-171.66177	944.52393	-997.55920				127.23106	483.59763	-1154.20984	-258.39279	471.38135	-1057.15710				-302.25214	84.69170	-1180.34497	
14	0.130																						-118.13179	1520.95349	-1228.35754	171.85681	1212.82483	-1274.79114	-349.55322	1178.74048	-1091.61719	156.96614	1150.72583	-1067.92883	-219.09572	1066.33386	-920.77808	88.43527	924.49384	-1086.84656	-171.66177	944.52393	-997.55920				127.32249	483.67181	-1153.85303	-258.20993	471.54529	-1056.85083				-302.21790	84.68348	-1180.33948	
15	0.140																						-117.15447	1520.97461	-1228.02368	172.30678	1212.84680	-1275.10974	-348.16025	1178.70435	-1090.92383	157.96498	1150.99622	-1068.17493	-218.45631	1066.45618	-921.16736	88.79884	924.86487	-1087.13757	-171.41743	944.58966	-997.33392				127.64248	483.38071	-1153.66052	-258.09814	471.66684	-1056.57935				-302.16406	84.67078	-1180.33081	
16	0.150																						-116.19422	1520.96997	-1227.90613	172.73282	1212.86987	-1275.40234	-347.35419	1179.19690	-1090.96497	159.34052	1150.41357	-1068.41748	-217.79765	1066.18298	-921.28101	89.49251	924.99042	-1086.87158	-171.41743	944.58966	-997.33392				127.61699	483.35928	-1153.65637	-258.64706	471.86316	-1055.97949				-302.14435	84.65897	-1180.32654	
